<?xml version="1.0" encoding="UTF-8"?>
<svg id="Capa_1" data-name="Capa 1" xmlns="http://www.w3.org/2000/svg" viewBox="0 0 926.39 358.41">
  <defs>
    <style>
      .cls-1 {
        fill: #fff;
      }
    </style>
  </defs>
  <path class="cls-1" d="M312.23,180.65l23.49.97,22.01,65.04c3.23-6.86,19.5-66.01,23-66.01h22l1.5,1.5v96c0,2.38-18,1.55-18,.5v-70l-23.44,70.73-9.04.26-2.95-2.07-20.56-59.93v60.5c0,2.49-18,1.91-18,0v-97.5Z"/>
  <path class="cls-1" d="M229.66,41.21c20.66,22.85,33.93,52.11,30.48,83.85-1.02,9.39-9.66,27.21-9.43,34.1.12,3.66,6.1,15.7,7.45,21.06,4.72,18.8,4.76,44.45-14.61,55.24-6.92,3.86-11.98,1.32-14.81,10.19-8.57,26.82,5.86,47.44-14.68,76.32-41.87,58.88-168.13,45.55-175.69-33.97-.89-9.36.5-19.45-.16-28.84-.16-2.32-2.41-18.73-2.99-19.53-.11-.15-2.46.7-3.78.31-26.3-7.86-35.13-25.68-30.09-52.68,1.6-8.58,10.98-25.79,10.98-32.13,0-4.53-4.01-10.5-5.05-15.06C-21.34,14.66,150.42-46.42,229.66,41.21ZM117.73,353.65c4.57.5,9.84-.36,14.5,0l1.02-29c2.53-.84,2.95,2.77,3.03,4.53.36,7.73-1.78,16.54-1.04,24.45,33.63.15,76.14-19.62,84.69-54.8,4.68-19.25,2.37-39.87,6.3-59.19-17.27-1.96-24.85,8.52-28.01,23.99-2.65.4-1.99-.41-1.97-2.46.13-9.89,5.61-22.29,15.45-25.57,16.09-5.36,32.21,2.65,41.56-19.44,11.27-26.64-6.7-48.67-15.79-72.26-9.62-24.99-14.58-44.48-9.98-71.5,1.06-6.22,6.03-14.68,3.98-20.5-1.29-3.67-16.29-18.19-20.06-21.2C166.64-5.06,89.74-3.09,46.7,34.63c-3.69,3.23-19.42,19.67-19.52,23.51-.01.45,1.81.45,1.97,1.26,5.43,27.41,8.01,43.62-.48,71.21s-42.35,74.3-10.95,97.04c13.58,9.84,24.38,2.8,37.19,8.81,7.62,3.58,11.52,11.94,13.18,19.82.65,3.1,1.83,21.03-1.98,10.91-3.3-8.78-1.59-20.79-13.7-25.23-18.78-6.88-10.68,6.84-10.21,17.21.74,16.21-1.44,29.83,4.54,45.46,9.86,25.82,44.28,46.1,70.99,49.01ZM245.24,151.65c5,3.53,10.83-30.24,10.96-32.52,1.35-22.97-7.06-45.84-21.49-63.45,1.7,5.21-1.89,9.03-2.97,13.96-3.95,18.11-2.25,39.04,3.2,56.79.89,2.89,9.18,24.43,10.29,25.21ZM26.22,60.66c-2.56-.2-3.66,2.95-4.79,4.7-10.59,16.37-14.81,40.39-13.06,59.66.29,3.18,4.11,21.61,5.88,22.64,3.08,1.8,11.62-20.23,12.45-23.03,6.67-22.3,4.38-41.66-.48-63.96Z"/>
  <path class="cls-1" d="M353.73,44.65c27.95,3.04,41.5,32.13,20.98,52.98l-12.47,7.5,23.99,40.52h-22c-2.83-4.77-19.04-37.7-21.22-38.78s-7.99.3-10.78-.22v39h-19V44.65c12.91,1.02,27.84-1.38,40.5,0ZM332.23,90.65c7.09-.23,25.38.5,29.88-5.62,6.11-8.32-.12-23.38-10.38-23.38h-19.5v29Z"/>
  <path class="cls-1" d="M748.23,145.65c-.58.58-15.02.76-16.33-.14-3.08-2.11-2.11-8.24-2.69-8.86-.38-.4-6.78,6.04-8.44,7.04-36.92,22.12-58.88-39.97-7.91-42.9,4.29-.25,14.79,2.37,15.36,1.84,1.84-1.68-3.79-12.83-10.77-13.77-10.55-1.43-11.46,6.93-13.35,7.67-.8.31-16.42-2.18-16.88-2.9-.71-1.1,3.74-8.88,5.12-10.37,10.75-11.59,37.42-11.51,47.4,1.36,9.75,12.58,5.65,34.46,6.45,49.55.12,2.24,2.68,10.83,2.04,11.47ZM703.51,130.36c5.7,4.65,19.59,1.03,22.79-6.13,4.19-9.38,1.28-12.06-8.53-11.59-8.18.4-24.49,9.37-14.26,17.72Z"/>
  <path class="cls-1" d="M616.23,114.65h-49c-.21,13.18,10.86,19.23,23.06,16.56,4.47-.98,8.62-6.17,9.43-6.25.87-.09,15.68,5.68,15.51,7.18-.12,1.07-11.58,11.34-13.6,12.41-21.73,11.48-51.22-2.14-53.26-27.54-4.36-54.34,73.77-57.73,67.86-2.36ZM571.73,102.65c7.6-.37,15.38,0,23,0,1.32,0,2.69,3.2,2.52-1.5-.62-17.02-27.9-15.21-28.96.07-.33,4.72,1.56,1.52,3.44,1.43Z"/>
  <path class="cls-1" d="M461.23,114.65h-49c.14,12.6,11.28,19.31,23.26,16.76,4.3-.92,8.01-6.36,9.38-6.59.82-.14,15.22,5.24,15.33,6.33-19.55,29.59-65.77,19.19-67.01-17.96-1.76-52.81,75.16-50.75,68.03,1.46ZM442.23,103.65c1.05-1.03-1.36-8.37-2.53-9.97-7.44-10.16-26.45-3.24-27.45,7.5-.19,2.08,4.24,2.07,5.75,2.19,3.06.25,23.37,1.13,24.23.28Z"/>
  <path class="cls-1" d="M720.23,279.65h-16c-.47,0-.54-8.84-2.5-8.98-.39-.03-4.25,4.58-5.57,5.41-20.08,12.74-46.83-1.37-36.82-25.82,6.52-15.91,26.16-17.36,40.88-14.62,1.25-7.91-3.06-12.24-10.79-12.78-10.08-.7-9.71,6.47-10.84,6.84-1.82.6-15.72-1.28-16.37-2.07-1.11-1.35,2.3-6.05,3.18-7.32,8.33-12.07,27.95-14.5,40.53-7.88,21.49,11.32,9.75,47.68,14.3,67.2ZM690.01,246.94c-24.93,2.4-16.54,25.79,3.63,16.62,6.3-2.86,11.18-15.33,4.06-16.87-2.32-.5-5.3.02-7.69.25Z"/>
  <path class="cls-1" d="M864.23,279.65h-14.5c-4.04,0-2.91-10.05-3.99-9.99-.91.05-8.1,8.83-14.69,10.31-36.51,8.23-42.08-42.19-4.29-45.29,3.6-.3,16.84,1.58,17.47.97,3.21-3.11-6.79-18.92-19.36-10.86-2.29,1.47-3.49,5.3-5.33,5.75-.71.17-13.79-2.37-14.3-2.89-.48-.49,3.33-7.59,4.02-8.48,9.26-11.99,30.15-13.58,42.31-5.35,17.71,11.98,7.55,47.34,12.67,65.83ZM831.97,246.9c-7.06,1-13.98,3.69-12.7,12.17,1.6,10.64,23.04,7.42,24.88-3.98,1.65-10.22-3.52-9.41-12.18-8.18Z"/>
  <path class="cls-1" d="M480.23,247.65h-47.5c-4.43,0,2.31,14.02,7.92,16.08,13.74,5.03,18.14-4.65,23.03-5.02.75-.06,14.04,3.4,14.55,3.95,1.85,1.96-9.6,12.74-12.31,14.19-21.76,11.68-49.79-.25-52.68-25.72-6.18-54.45,70.52-57.56,66.98-3.48ZM431.23,236.65h30c-1.52-19.25-25.98-17.59-30,0Z"/>
  <path class="cls-1" d="M775.23,279.65v-43.5c0-15.86-26-14.13-26-1v43l-1.5,1.5h-16.5v-70h17v6.99c3.46-1.41,4.67-4.11,8.73-5.76,11.03-4.48,25.58-2.3,31.68,8.86,4.21,7.71,5.24,47.34,3.64,56.46-.16.92-.41,3.45-1.55,3.45h-15.5Z"/>
  <path class="cls-1" d="M524.25,101.65c-24.9-39.32-52.33,25.87-18.24,29.75,14.18,1.62,16.79-9.37,18.89-9.81,1.15-.24,14.17,3.61,15.31,4.6,2.94,2.56-8.75,14.35-11.04,15.89-33.02,22.33-73.39-15.92-52.96-50.96,11.2-19.21,44.39-22.47,58.86-5.81,12.83,14.78-.51,10.79-10.81,16.33Z"/>
  <path class="cls-1" d="M503.23,209.65c1.16.66,11.27,23.91,13.49,23.01,1.05-.43,9.61-16.29,11.72-19.34.82-1.19.6-3.67.79-3.67h21l-23.66,36.49,21.66,33.51h-19.5l-14.48-21-12.52,21h-19.5l22.66-34.5-23.66-35.5h22Z"/>
  <path class="cls-1" d="M810.22,94.65l-13.54,1.77c-2.56-16.49-28.9-5.87-18.76,2.3,8.37,6.75,33.03,3.03,36.23,21.5,6.16,35.54-52.71,34.99-57.49,9.43-.89-4.76,11.45-7.34,13.96-6.79,1.59.35,4.36,5.97,7.27,7.63,7.54,4.31,24.22,1.98,18.39-8.14-4.54-7.88-40.38-4.36-37.98-29.08,2.36-24.31,51.35-25.82,51.93,1.37Z"/>
  <path class="cls-1" d="M652.23,258.66c2.98,3.1-11.04,16.85-14.8,18.69-36.05,17.68-66.47-26.06-42.23-56.23,12.6-15.67,39-17.17,52-.94,10.24,12.79.57,11.08-10.31,14.37-26.35-36.32-47.19,28.14-16.13,30.13,12.46.8,13.72-8.17,16.12-8.91.75-.23,14.81,2.33,15.35,2.89Z"/>
  <path class="cls-1" d="M924.22,228.65c-4.47-2.42-10.08,2.22-14.26,1.03-.87-.25-2.51-4.2-4.83-5.44-10.13-5.41-24.02,3.72-8.89,9.9,11.35,4.63,27.7,3.61,29.88,20.1,3.85,29.12-36.67,35.53-51.9,13.91-9.97-14.16,1.87-7.72,11.98-12.5-.39,13.36,28.01,13.52,23.82.71-2.57-7.86-38.97-4.69-36.58-28.92,2.49-25.17,48.38-25.22,50.76,1.21Z"/>
  <path class="cls-1" d="M624.23,76.65l14.06-.47.38-16.59,16.56-3.93.44,20.03c15.59,3.78,23.98-8.9,21.57,14.96l-22,1.01v28.5c0,11.97,9.49,14.09,18.99,9.5l.96,15.95c-16.36,4.33-34.29,3.58-36.83-16.57-1.03-8.19,1.73-31.54-.26-36.74-1.26-3.3-13.86-.92-13.86-1.64v-14Z"/>
  <polygon class="cls-1" points="577.23 209.65 577.23 279.65 560.73 279.65 559.23 278.15 559.23 209.65 577.23 209.65"/>
  <path class="cls-1" d="M577.9,180.98c10.43,12.36-11.9,25.94-19.71,13.94-9.02-13.86,12.06-23,19.71-13.94Z"/>
  <path class="cls-1" d="M183.5,128.38c.89.97,2.81.64,3.52,1.49.83,1-.36,4.34,2.2,4.78,1.29-8.31,7.24-12.93,9.83-2.29.36,1.49-1.36,4.63-.81,5.28,1.18,1.39,9.09-9.88,12.98-4.97,3.52,4.44-14.99,13.26,7.01,6.97,2.43,3.15-.28,10.5,0,10.99.17.29,5.75,1.38,6.08,2.65.69,2.67-2.05,4.55-2.08,4.88-.09.86,3.2-.2,1.95,2.46-.26.56-4.51-1.39,1.04,4.51-1.68,2.62-4.08,2.77-6.98,2.53l6.91,5.64c-.81,3.02-3.02,4.67-5.9,3.35l1.99,8.99-8.99-1.98c.15,4.89,2.42,1.35,2.99,1.99,2.53,2.8-4.68,9.65-7.64,10.69-.94.33-4.23-.92-6.33,1.31l-3-8.99c.02,2.91,1.86,10.43-2.59,10.95-3.2.37-1.64-7.57-8.41.04l-.51-7.01-2.01,6-4.48-3.98c-2.77,14.12-5.01-2.43-6.03-3-.84-.47-4.71,4.85-6,5.49-6.3,3.1,1.05-8.87-7.98-2.48.69-5.25-1.73-1.66-3.02-2.48-1.8-1.14.14-3.11-.09-3.44-.4-.56-11.54-4.1-.91-5.59l-7.96-6.05c-.61-2.14,5.92-3.47,5.94-4.95.04-2.46-6.51-1.13-7.97-.5-1.18-2.68,2.2-1.66,1.99-2.49s-3-2.19-1.94-4.9c8.17-1.1-1.48-8.47.94-10.61.32-.28,6.65,1.17,6.6-3.51s-6.93-1.38-3.64-7.04c4.39-7.54,7.93,1.15,9.03.54,1.46-.8-3.2-3.1-2.93-5.52,1.3-11.4,13.85,10.88,7.95-4.47l2.98,1c1.08-1.28-4.17-8.81,1.52-9.99.78-.16.95,3.21,1.96,4.03,2.35,1.92,5.7-.47,7.04,3.96l.5-8.99c4.6-1.04,4.01,3.35,5.26,4.72ZM175.22,130.67c-1.07-.72-2.74.48-1.99.98,1.07.72,2.74-.48,1.99-.98ZM180.96,142.89c-21.33,4.04-24.08,38.16,2.74,39.79,35.09,2.13,25.87-45.2-2.74-39.79ZM217.22,148.65c.72-1.07-.48-2.74-.98-1.99-.72,1.07.48,2.74.98,1.99Z"/>
  <path class="cls-1" d="M89.23,124.67l-1.99,10.98c4.2-.4,2.74-6.61,5.49,1,2.02-1.65,2.06-5.33,5.18-4.26,7.42,2.56-5.05,12.33,6.84,5.3.05,5.27,5.24,5.6,5.48,5.98,1.1,1.74-7.88,4.04-6.99,6.98h8.99c-.06,3.77-2.6,4.7,1,6.99l-6.99,2c10.63-.98,12.01,8.42.99,8.02l6,6.98c-4.17-.96-3.57,3.37-4.17,3.83-1.04.8-4.31-.65-5.83,1.69-.18.28,4.42,2.75,2.95,5.4-3.52,6.34-19.91-11.03-6.03,6.46-1.49,4.55-5.63.36-5.91.63-.3.29.28,2.73-.01,3.01-.65.61-4.56-1.41-4.99-1-.31.3.3,2.49,0,3-1.13,1.83-8.73-7.12-8.5-8.99-1.78,1.48,2.9,8.75,0,9.01-3.89.34-5.13-6.73-5.5-7.01-2.39-1.84-13.23,16.85-14,1.01l-2,3.99c-.57.34-2.03-1.56-2.27-2.3-2.66-7.95,4.19-5.11-10.58-3.82-2.14-3.23.52-4.79.86-7.88-13.52,4.72-5.1-6.95-6-8-.25-.29-4.91,2.43-4.99-3.6-.06-5.02,4.18-2.69,5-3.41.45-.39-3.11-9.99-3.09-11.48.04-3,3.88-1.42,4.09-3.03.32-2.41-3.18-4.23-1.07-6.86.73-.91,2.49-.36,2.84-.79.71-.87-.13-3.35,1.18-4.44,1.05-.87,3.08.59,4.1.1.8-.39.94-2.54,2.39-3.18,1.78-.8,4.9,4.13,2.57-4.3,4.02-2.48,8.52,4.24,8.98,3.99.76-.42-2.85-17.03,7-6.48,1.86,1.99-.36,5.11,3,4.48-1.05-2.6,3.61-11.44,6.01-8.99.37.38-1.04,8.87,1.99,9.99-1.19-9.99,1.67-5.54,3.85-7.15.75-.55-.12-5.11,4.16-3.84ZM89.93,178.34c18.51-13.03-7.89-52.65-30.22-26.71-9.48,11.01-.74,29.64,11,28.03,1.11-.15,17.32-16.92,17.52-6.52.02,1.08-8.8,12.6,1.71,5.21Z"/>
  <path class="cls-1" d="M129.22,14.65l2.02,29,5.98-2.99c-1.41,4.53-5.23,5.01-5.91,10.6-.28,2.27,1.28,21.47,1.93,22.39,3,4.21.8-3.84.99-3.99.28-.22,4.01.34,5.95-.56,4.19-1.95,6.66-6.63,10.11-8.88,16.96-11.07,41.18-13.63,60.93-16.56-6.87,7.47-21.51,6.14-31.22,8.27-17.67,3.87-32.56,9.69-41.78,26.22l3.5-2.5.5,3.99,17.5-1.97c-1.35,5.56-8.17,4.15-11.51,6.96,10.49.98,18.82,8.42,30.69,3.2,5.34-2.35,6.22-6.76,8.62-8.89,7.73-6.86,6.32,3.23,6.69,3.69.35.43,2.35-1.16,2.88-.87.27.15.36,2.33,1.73,2.72,8,2.3,13.73-4.02,8.83-11.8-4.59-7.3-16.56-9.74-23.42-4.52-2.71,2.06-1.83,5.63-5.02,5.47,2.17-8.86-4.88-7.04-7-9.01-4.5-4.16,9.09-.28,9.63-.3,9.07-.32,18.18-5.62,26.35,2.83,5.34,5.53,7.44,16.63-.7,20.27-2.73,1.22-8.5-1.63-3.29,3.72l-2.99.51,6.99,4.98c-7.37,3.48-16.27-9.23-18.47-9.59-3.14-.52-11.31,5.5-18,5.66-7.9.19-14.79-4.38-22.52-5.05-.39,1.63,2.06,3.4,3.14,4.3,11.68,9.76,23.13,18.73,38.85,20.7-6.2,2.59-12.74-2.23-18.51-3.99l2.02,4.97c-6.94-2.59-13.75-13.55-18.57-16.52-1.54-.95-5.18,1.1-7.44-4.45l1.02,4.97c-8.47-5.36-15.03-16.37-17.02-.03-.26,2.17,1.34,7.8.27,12.3-2.54,10.74-6.12-.42-5.86-4.76.27-4.55,6.36-12.21-.57-16.42-5.72-3.47-9.32,13-12.33,9.91-.67-.69,4.72-11.86,2.01-12.98-1.59,3.89-8.3,2.76-12.97,5.54-10.99,6.55-19.62,26.38-38.05,22.44-.07-3.56,7.34-2.54,10-3.49,3.73-1.33,24.34-14.91,20.98-18.5-.52-.56-11.04,1.37-15.23.73-4.48-.68-11.46-5.76-12.12-5.66-1.06.16-13.57,12.44-18.65,9.91l7.99-7.5c.43-1.98-4.89-1.54-7.51-3.47-9.56-7.05,1.85-21.71,12-23.04s13.31,3.26,18.04,3.57c3.96.26,8.92-5.38,13.47-2.54-3.6,6.43-10.8,1.45-7,11.99-9.54-6.58-16.04-14.01-29-8.51s-8.13,24.97,7.51,14.54l-1.49-.04c3.81-13.31,9.11,2.72,13.01,5.48,10.03,7.09,27.08-.2,37.98-1.48-.35-4.25-7.72-2.36-5-8l16.48,3.02c-1.49-11.14-17.37-21.67-27.78-25.22-12.78-4.36-27.35-3.76-39.94-7.06-4.8-1.26-10.52-4.99-2.52-4.51s25.54,4.26,33.98,6.06c4.3.92,11.38,4.65,14.28,4.74,5.41.17.1-3.63,1.51-5.01,2.61-2.55,4.09,6.11,6.45,9.04.75.93,17.73,15.82,18.54,14.95.88-.95-2.88-23.08-3.92-25.57-2.42-5.83-17.52-10.89.91-6.43l-1-25.51,1.99-1.49ZM114.73,80.65v1l.5-.5-.5-.5ZM186.74,84.68c-2.11,1.44-1.48,2.88,0,.98.39-.5.76-.54,0-.98Z"/>
  <path class="cls-1" d="M160.22,227.65l-1.46-1.82-10.6,1.26-2.42,13.57c-2.81-2.99-5.87-9.67-8.5-12.23-7.28-7.08-12.15,8.09-17.52,12.22l-1.43-14.55-13.06,1.55,27.51-45,27.48,45.01Z"/>
  <path class="cls-1" d="M20.24,199.65c14.44-16.69,1.41,5.05,1.04,10.64-.97,14.53,6.38,2.37,9.94.86,24.68-10.41,64.89,7.04,64,37.51-6.62-7.34-7.02-17.06-15.09-24.4-10.02-9.1-41.3-17.31-51.39-6.6-8.76,9.31,8.05,9.22,12.48,2-2.53,13.8-20.27,10.69-22.75-1.74-.85-4.26.97-16.35.65-17.15-.1-.25-3.1-1.02-4.33-3.17-2.65-4.62-4.92-10.94-3.4-16.29,2.18-7.72,4.28,9.56,4.5,10.2,1.15,3.33,4.46,4.37,4.36,8.15Z"/>
  <path class="cls-1" d="M249.22,179.66c-.34,4.24.62,9.14-.23,13.26-.79,3.81-6.2,8.72-6.5,10.36-1.33,7.34,3.55,16.7-6.76,23.38-9.25,5.99-21.7-2.9-18.5-6,1.54-1.49,9.08,7.19,14.05,3.55,5.87-4.3-6.32-10.41-10-11.11-19.95-3.82-44.46,13.92-44.06,34.54-8.67.36.95-17.06,3.57-20.92,8.92-13.09,28.28-20.81,43.8-16.95,9.2,2.29,11.34,10.11,12.12,9.87,1.49-.46,3.5-8.7,3.43-10.42-.17-3.97-6.46-12.13-5.92-12.56,2.27-1.8,6.57,6.28,11.32-7.19,1.08-3.07-.38-10.1,3.67-9.82Z"/>
  <path class="cls-1" d="M52.23,280.15l2.48-1.5c7.21,11.17,9.92,20.36,21.59,28.42,10.81,7.46,23.63,8.02,33.42,14.58,5,3.35,15.24,14.42,9.46,20.45-7.89,8.23-22.73-5.42-16.45-5.44,1.1,0,17.75,14.17,13.28-2.31-3.25-12.02-24.57-15.21-34.16-19.83-13.67-6.58-20.06-14.79-27.13-27.85.57,13.48,2.87,24.88,14.51,32.96-6.4,2.64-17-13.32-17-17.49v-22Z"/>
  <path class="cls-1" d="M197.23,319.65c7.83-8.4,14.15-17.79,13.5-29.99-5.81,9.54-13.83,17.94-23.62,23.38-9.02,5.01-34.2,10.49-35.68,22.38-1.8,14.4,14.24-2.13,15.8-.75,1.47,1.3-13.01,15.8-18.81,6.3-9.63-15.78,27.07-26.09,35.18-30.44,7.18-3.84,15.38-10.19,20.03-16.97,1.94-2.83,9.76-22.52,11.29-11.29,1.65,12.16-4.42,33.18-17.69,37.38ZM211.22,288.65c.72-1.07-.48-2.74-.98-1.99-.72,1.07.48,2.74.98,1.99Z"/>
  <path class="cls-1" d="M165.23,310.64l-70.98-.49c3.3-1.83,9.62-2.3,13.44-2.54,13.62-.84,34.59-1.05,48.08,0,2.91.22,7.69.13,9.46,3.03Z"/>
  <path class="cls-1" d="M138.11,295.59c-1.6,1.43-8.53-2.25-8.87-1.95-.88.8,1.65,4.97-5.07,3.6-7.06-1.44-7.96-10.53-1.37-11.6,3.65-.6,5.28,1.93,6.78,1.84,1.88-.11,2.69-2.86,5.65-2.43,5.78.84,5.47,8.23,2.89,10.54Z"/>
  <path class="cls-1" d="M151.21,15.66c.38.3,3.91,6.32,5.39,7.62,12.18,10.79,16.68,7.41,30.63,2.86-9.07,10.79-23.28,11.04-32.52.53-1.62-1.84-8.67-15.15-3.5-11.02Z"/>
  <path class="cls-1" d="M112.22,14.66c.74.76-4.99,10.29-6,11.49-5.23,6.2-12.06,8.86-20.26,7.27-4.22-.82-14.04-9.04-7.6-7.4s8.14,5.82,17.9,3.18c4.52-1.22,14.41-16.13,15.96-14.53Z"/>
  <path class="cls-1" d="M140.96,250.81c6.89-1.71,12.01,9.73,4.32,12.4-10.82,3.75-12.21-10.44-4.32-12.4Z"/>
  <path class="cls-1" d="M104.84,250.95c8.42-1.14,10.44,10.39,3.67,12.48-10.21,3.15-11.71-11.39-3.67-12.48Z"/>
  <path class="cls-1" d="M135.41,278.48c-6.09-10.99,16.75-13.23,12.06-1.1-2.28,5.92-10.69,3.57-12.06,1.1Z"/>
  <path class="cls-1" d="M101.52,296.37c-5.53-6.85,7.56-15.12,11.19-6.7s-7.37,11.42-11.19,6.7Z"/>
  <path class="cls-1" d="M128.98,250.9c4.28,4.2-2.7,15.64-9.73,9.24s4.42-14.44,9.73-9.24Z"/>
  <path class="cls-1" d="M101.53,270.98c4.29-5.66,14.42-1.02,11.18,6.64s-16.55.45-11.18-6.64Z"/>
  <path class="cls-1" d="M164.97,267.44c-3.33,3.64-16.56-2.16-10.23-8.77s15.63,2.86,10.23,8.77Z"/>
  <path class="cls-1" d="M176.85,259.91c9.62-1.88,8.14,11.38,3.8,12.55-10.79,2.92-10.45-11.26-3.8-12.55Z"/>
  <path class="cls-1" d="M156.05,290.82c4.92,8.65-12.85,15.37-11.76,2.43.59-6.99,10.3-5,11.76-2.43Z"/>
  <path class="cls-1" d="M118.47,277.43c-4.72-9.61,11.02-16.05,10.84-5.31-.13,7.59-8.54,9.98-10.84,5.31Z"/>
  <path class="cls-1" d="M87.89,255.9c8.45-.4,8.68,12.07-.19,11.83-7.28-.2-7.62-11.46.19-11.83Z"/>
  <path class="cls-1" d="M190.37,280.51c-1.45-.9-3.27-11.73,3.33-11.92,12.3-.36,4.91,17.04-3.33,11.92Z"/>
  <path class="cls-1" d="M83.41,275.85c2-4.05,15.03-4.66,12.63,4.07-2.12,7.7-16.01,2.78-12.63-4.07Z"/>
  <path class="cls-1" d="M165.96,291.8c6.67-1.69,12.3,10,2.52,11.7-8.72,1.52-8.65-10.14-2.52-11.7Z"/>
  <path class="cls-1" d="M83.42,298.48c-3.49-6.45,6.41-13.78,10.72-7.18s-7.81,12.57-10.72,7.18Z"/>
  <path class="cls-1" d="M178.95,287.36c-7.37,6.07-17.73-12.19-2.28-9.64,6.45,1.06,6.1,6.49,2.28,9.64Z"/>
  <path class="cls-1" d="M163.1,274.78c2.65,3.79-2.82,14.38-9.44,7.96-8.53-8.28,6.94-11.54,9.44-7.96Z"/>
  <path class="cls-1" d="M71.91,275.82c4.79-1.76,10.88,3.44,8.23,8.19-5.68,10.17-15.84-5.39-8.23-8.19Z"/>
  <path class="cls-1" d="M182.49,295.4c-4.07-3.65.79-14.29,7.83-8.34,6.57,5.55-2.26,13.33-7.83,8.34Z"/>
  <path class="cls-1" d="M202.22,220.66c2.69,7.15-9.58,18.51-14.99,13.99-3.13-2.61,6.83-5.43,7.52-5.97.97-.75,5.82-10.01,7.47-8.02Z"/>
  <path class="cls-1" d="M79.23,231.66c.6,4.96-11.11,1.94-12.34,1.08-2.16-1.51-3.62-15.18,1.33-9.58,3.02,3.41,3.73,9.51,11.01,8.5Z"/>
  <path class="cls-1" d="M194.23,326.67c-3.27,4.74-11.52,5.1-16.27,2.76-6.1-3,1.81-7.04,2.26-6.77.24.14.25,3.93,2.68,4.82,3.42,1.25,7.89-.6,11.33-.81Z"/>
  <path class="cls-1" d="M89.23,324.66c.12.08-1.12,1.92-1.03,1.98.61.41,2.99-.64,3.02.5.02,1.22-2.35.76-2.44.85-.41.41.39,2.16-1.13,2.51-3.07.71-18.14.13-14.42-3.85.25-.27,4.97,1.33,7.4.96,2.08-.31,7.11-3.92,8.6-2.96Z"/>
  <path class="cls-1" d="M141.11,131.77c3.28,4.65-7.69,3.48-3.87-1.11.28-.34,3.68.84,3.87,1.11Z"/>
  <path class="cls-1" d="M166.23,46.67c.51.47-2.08,2.8-3,1.98-.53-.47,2.1-2.8,3-1.98Z"/>
  <path class="cls-1" d="M211.22,126.67c.75.5-.92,1.69-1.99.98-.75-.5.92-1.69,1.99-.98Z"/>
  <polygon class="cls-1" points="110.73 111.65 111.23 112.15 110.73 112.65 110.73 111.65"/>
  <path class="cls-1" d="M51.74,111.68c.76.43.39.48,0,.98-1.48,1.9-2.11.46,0-.98Z"/>
  <polygon class="cls-1" points="113.73 92.65 114.23 93.15 113.73 93.65 113.73 92.65"/>
  <polygon class="cls-1" points="134.73 67.65 135.23 68.15 134.73 68.65 134.73 67.65"/>
  <polygon class="cls-1" points="38.73 163.65 39.23 164.15 38.73 164.65 38.73 163.65"/>
  <polygon class="cls-1" points="188.73 102.65 189.23 103.15 188.73 103.65 188.73 102.65"/>
  <polygon class="cls-1" points="171.73 100.65 172.23 101.15 171.73 101.65 171.73 100.65"/>
  <path class="cls-1" d="M243.22,122.65c-12.78-9.11,2.03-15.78,5.51-25.98,5.62,5.28-7.09,16.15-7.34,17.63s3.08,5.65,1.82,8.35Z"/>
  <path class="cls-1" d="M15.21,96.66c2.6,2.55,12.47,21.48,6.51,24.99.03-9.12-9.85-14.44-8.52-23.49.2-1.33.53-2.94,2.01-1.5Z"/>
  <path class="cls-1" d="M191.98,154.9c6.82,4.87-2.92,21.91-9.69,20.27-2.48-.6-9.53-8.05-3.06-6.53-7.47-9.36,3.48-20.37,12.75-13.74Z"/>
  <path class="cls-1" d="M65.45,163.43c-2.62-5.27,5.12-16.49,13.48-11.96,13.41,7.27-10.34,18.27-13.48,11.96Z"/>
</svg>